<svg width="1024" height="1024" viewBox="0 0 1024 1024" fill="none" xmlns="http://www.w3.org/2000/svg">
    <rect width="1024" height="1024" rx="228" fill="#0F172A"/>
    <rect x="188" y="164" width="590" height="410" rx="72" fill="#14B8A6"/>
    <rect x="248" y="224" width="470" height="290" rx="46" fill="#E0F2FE"/>
    <rect x="320" y="298" width="140" height="34" rx="17" fill="#0F172A" opacity="0.18"/>
    <rect x="320" y="360" width="294" height="34" rx="17" fill="#0F172A" opacity="0.18"/>
    <rect x="320" y="422" width="210" height="34" rx="17" fill="#0F172A" opacity="0.18"/>
    <rect x="246" y="446" width="590" height="410" rx="72" fill="#F8FAFC"/>
    <rect x="318" y="532" width="276" height="38" rx="19" fill="#0F766E"/>
    <rect x="318" y="604" width="402" height="38" rx="19" fill="#2563EB"/>
    <rect x="318" y="676" width="332" height="38" rx="19" fill="#64748B"/>
    <rect x="318" y="748" width="214" height="38" rx="19" fill="#94A3B8"/>
    <rect x="708" y="518" width="54" height="54" rx="18" fill="#F59E0B"/>
    <rect x="644" y="518" width="38" height="54" rx="15" fill="#14B8A6"/>
</svg>
